<?xml version="1.0" encoding="UTF-8" standalone="no"?>
<svg
   version="1.1"
   x="0px"
   y="0px"
   viewBox="0 0 32 32"
   enable-background="new 0 0 32 32"
   xmlspace="preserve"
   id="svg1070"
   sodipodidocname="Bank.svg"
   inkscapeversion="1.1 (c68e22c387, 2021-05-23)"
   xmlnsinkscape="http://www.inkscape.org/namespaces/inkscape"
   xmlnssodipodi="http://sodipodi.sourceforge.net/DTD/sodipodi-0.dtd"
   xmlns="http://www.w3.org/2000/svg"
   xmlnssvg="http://www.w3.org/2000/svg"><defs
     id="defs1074" /><sodipodinamedview
     id="namedview1072"
     pagecolor="#505050"
     bordercolor="#eeeeee"
     borderopacity="1"
     inkscapepageshadow="0"
     inkscapepageopacity="0"
     inkscapepagecheckerboard="0"
     showgrid="false"
     showguides="true"
     inkscapeguide-bbox="true"
     inkscapezoom="8.9625785"
     inkscapecx="8.9260028"
     inkscapecy="13.110067"
     inkscapewindow-width="1360"
     inkscapewindow-height="715"
     inkscapewindow-x="-8"
     inkscapewindow-y="-8"
     inkscapewindow-maximized="1"
     inkscapecurrent-layer="text7384"><sodipodiguide
       position="-1.8967756,47.587102"
       orientation="0,-1"
       id="guide1831" /><sodipodiguide
       position="2.9009509,43.235676"
       orientation="0,-1"
       id="guide1833" /><sodipodiguide
       position="-10.041753,26.276271"
       orientation="1,0"
       id="guide1835" /></sodipodinamedview><g
     id="g1064"
     transform="translate(0.11157503,-0.44630014)"><g
       aria-label="c"
       transform="scale(1.2551367,0.79672597)"
       id="text7384"
       style="font-size:4.10793px;line-height:1.25;font-family:Impact;-inkscape-font-specification:'Impact, Normal';fill:#ffffff;stroke-width:0.102699"><path
         id="path23295"
         d="m 13.594091,7.5659924 h -0.76422 V 7.2591011 q 0,-0.160466 -0.02608,-0.2166291 -0.02607,-0.058169 -0.09628,-0.058169 -0.0702,0 -0.09427,0.050146 -0.02407,0.050146 -0.02407,0.2246524 V 8.514748 q 0,0.1424136 0.03611,0.2146233 0.0361,0.070204 0.106309,0.070204 0.08224,0 0.11032,-0.074215 Q 12.872,8.6511443 12.872,8.4445448 V 8.1276235 h 0.722098 q -0.002,0.3189262 -0.02407,0.4793922 -0.02006,0.1584602 -0.134391,0.3269495 -0.112326,0.1664835 -0.294856,0.252734 -0.18253,0.084245 -0.451311,0.084245 -0.342996,0 -0.543578,-0.1163379 -0.20059,-0.118344 -0.284834,-0.3289556 -0.08224,-0.2126175 -0.08224,-0.6017476 V 7.4677069 q 0,-0.3389844 0.0682,-0.5114854 0.0682,-0.172501 0.290844,-0.3068913 0.222647,-0.1363961 0.541573,-0.1363961 0.316921,0 0.541573,0.1343903 0.224653,0.1343903 0.298868,0.3389845 0.07422,0.2045942 0.07422,0.5796835 z m 0.246076,10.8227906 2.215316,1.844685 v 0.94079 l -2.215316,1.85391 v -1.217494 l 1.367877,-1.1022 -1.367877,-1.097588 z m -0.177316,-1.475749 -1.105356,7.752292 h -0.704663 l 1.112263,-7.752292 z M 11.675515,23.028168 9.4601991,21.17887 v -0.936178 l 2.2153159,-1.853909 v 1.217491 l -1.367877,1.1022 1.367877,1.097588 z m 8.731028,-9.444102 h 2.484192 v 15.203471 h -2.484192 z m -3.850577,0 h 2.484192 v 15.203471 h -2.484192 z m -10.1008921,0 H 8.9392653 V 28.787537 H 6.4550739 Z m -3.8505766,0 H 5.0886888 V 28.787537 H 2.6044973 Z M 0,29.301321 h 25.228548 v 3.913516 H 0 Z M 12.715701,0.64765053 0.0252087,13.17266 H 25.40534 Z m 0,9.24408177 c -0.774185,0 -1.401717,-0.9237806 -1.401717,-2.0634447 0,-1.1396642 0.627532,-2.0634448 1.401717,-2.0634448 0.774184,0 1.401718,0.9237806 1.401718,2.0634448 0,1.1409192 -0.627534,2.0634447 -1.401718,2.0634447 z" /></g></g></svg>
